# xmcd
#
# Track frame offsets: 
#        150
#        24087
#        37955
#        56162
#        81465
#        96912
#        121042
#        136730
#        167805
#        187157
#        199092
#        213620
#        231832
#        266222
#        278827
#        292255
#        306810
#        320195
#
# Disc length: 4501 seconds
#
# Revision: 4
# Processed by: cddbd v1.5.2PL0 Copyright (c) Steve Scherf et al.
# Submitted via: ExactAudioCopy v0.99pb5
#
DISCID=16119312
DTITLE=Elvin Bishop - Tulsa Shuffle
DYEAR=1994
DGENRE=Blues
TTITLE0=Tulsa Shuffle
TTITLE1=How Much More
TTITLE2=The`Things (That) I Used To Do
TTITLE3=Sweet Potatoe
TTITLE4=Honey Bee
TTITLE5=Prisoner Of Love
TTITLE6=Party Till The Cows Come Home
TTITLE7=Hogbottom
TTITLE8=Be With Me
TTITLE9=So Fine
TTITLE10=Don't Fight It (Feel It)
TTITLE11=As The Years Go Passing By
TTITLE12=So Good
TTITLE13=Rock My Soul
TTITLE14=Rockbottom
TTITLE15=Stomp
TTITLE16=Stealin' Watermelons
TTITLE17=Last Mile
EXTD=
EXTT0=
EXTT1=
EXTT2=
EXTT3=
EXTT4=
EXTT5=
EXTT6=
EXTT7=
EXTT8=
EXTT9=
EXTT10=
EXTT11=
EXTT12=
EXTT13=
EXTT14=
EXTT15=
EXTT16=
EXTT17=
PLAYORDER=
